<svg xmlns="http://www.w3.org/2000/svg" width="600" height="99.653" viewBox="0 0 600 99.653"><path d="M64.774 38.59l3.42-2.014c.603-.355.712-.666.708-.73-.001-.03-.085-.149-.334-.26L4.307 2.746c-.587-.305-1.043-.457-1.36-.457-.175 0-.328.047-.526.164l-.137.083c-.633.373-.934.609-.971 1.97L.007 75.944c-.027.338.03.465.055.49.032.038.271.16.987-.26l3.415-2.016c.996-.587.986-1.295.981-1.527L6.32 9.438l56.6 29.247c.745.423 1.446.148 1.854-.094zm15.82 23.712L77.1 60.418c-.413-.222-1.204-.434-1.824-.048l-54.52 31.954-4.262-63.567c-.017-.676-.366-1.178-1.039-1.54l-3.496-1.885c-.417-.225-.691-.258-.818-.258-.104 0-.162.021-.175.037-.024.027-.078.155-.044.42l5.148 71.976c.09 1.422.431 1.606.731 1.77l.148.077c.863.467 1.168.376 2.174-.197l61.81-35.845c.308-.155.39-.276.391-.313 0-.063-.12-.367-.731-.697zm11.419-23.135L32.11.211C31.883.045 31.75 0 31.683 0c-.084 0-.3.29-.317.975l-.103 3.967c-.027 1.156.58 1.524.78 1.644l53.135 34.212-54.79 32.514c-.592.321-.884.862-.903 1.627l-.1 3.962c-.014.536.108.855.214.965l.06.027c.034 0 .16-.01.367-.151l61.892-37.106c1.23-.728 1.24-1.127 1.248-1.448l.006-.183c.017-.707-.025-1.085-1.159-1.838z" fill="#f15a22"/><path d="M130.424 36.706l9.913-12.546v-3.696h-27.835v6.945h16.353l-8.793 10.865 1.4 3.472h3.081c7.393 0 8.85 3.977 8.85 6.16 0 3.137-3.025 5.601-7.618 5.601-4.312 0-7.84-.448-11.873-2.072l-2.913 6.273c4.93 2.24 8.514 2.744 14.506 2.744 9.465 0 15.738-4.704 15.738-12.657 0-6.273-4.424-9.745-10.81-11.09zm25.983-19.603c-2.464 0-4.48 2.073-4.48 4.593s2.016 4.536 4.48 4.536c2.465 0 4.425-2.016 4.425-4.536 0-2.52-1.96-4.593-4.425-4.593zm-3.864 42.845h7.784V29.537h-7.784v30.411zm29.232-39.484h-8.009v39.484h28.34v-6.72h-20.33V20.463zm35-.739h-2.072a.738.738 0 0 0-.739.739v39.484c0 .408.33.739.739.739h2.072c.408 0 .739-.33.739-.739V20.464a.738.738 0 0 0-.74-.739zm48.667 0h-2.072a.738.738 0 0 0-.74.739v33.43l-27.586-33.897a.738.738 0 0 0-.573-.272h-1.4a.738.738 0 0 0-.74.739v39.484c0 .408.331.739.74.739h2.072c.408 0 .738-.33.738-.739V26.516l27.644 33.9c.14.171.35.271.573.271h1.344c.408 0 .739-.33.739-.739V20.464a.738.738 0 0 0-.74-.739zm51.969 21.17h-18.034a.738.738 0 0 0-.739.74v1.903c0 .409.33.74.74.74H314.6v8.69c-3.981 2.912-8.887 4.45-14.215 4.45-9.876 0-17.91-7.71-17.91-17.184 0-9.444 8.034-17.127 17.91-17.127 5.372 0 10.227 1.741 13.67 4.902.3.274.765.256 1.042-.042l1.4-1.512a.738.738 0 0 0-.04-1.045c-4.138-3.83-9.696-5.853-16.072-5.853-11.865 0-21.517 9.276-21.517 20.677s9.652 20.677 21.517 20.677c6.508 0 12.884-2.163 17.494-5.935a.74.74 0 0 0 .271-.572v-12.77a.738.738 0 0 0-.739-.739zm41.887 16.354h-24.351V42.485h19.703c.409 0 .739-.33.739-.739v-1.904a.738.738 0 0 0-.739-.739h-19.703v-15.94h23.175c.409 0 .739-.33.739-.739v-1.96a.738.738 0 0 0-.739-.739h-25.986a.738.738 0 0 0-.74.739v39.484c0 .408.331.739.74.739h27.162c.409 0 .74-.33.74-.739v-1.96a.738.738 0 0 0-.74-.739zm46.314-37.524h-2.073a.738.738 0 0 0-.738.739v33.43l-27.587-33.897a.739.739 0 0 0-.574-.272h-1.4a.738.738 0 0 0-.739.739v39.484c0 .408.33.739.74.739h2.071c.409 0 .74-.33.74-.739V26.516l27.643 33.9c.14.171.35.271.572.271h1.345c.408 0 .739-.33.739-.739V20.464a.738.738 0 0 0-.74-.739zm18.365 0h-2.073a.738.738 0 0 0-.738.739v39.484c0 .408.33.739.738.739h2.073c.408 0 .739-.33.739-.739V20.464a.738.738 0 0 0-.74-.739zm43.458 37.524h-24.351V42.485h19.703c.409 0 .74-.33.74-.739v-1.904a.738.738 0 0 0-.74-.739h-19.703v-15.94h23.175c.409 0 .74-.33.74-.739v-1.96a.738.738 0 0 0-.74-.739h-25.986a.738.738 0 0 0-.74.739v39.484c0 .408.331.739.74.739h27.162c.409 0 .74-.33.74-.739v-1.96a.738.738 0 0 0-.74-.739zm45.585-37.524h-2.072a.738.738 0 0 0-.74.739v23.41c0 8.32-5.017 13.487-13.093 13.487-8.009 0-12.983-5.168-12.983-13.487v-23.41a.738.738 0 0 0-.74-.739h-2.015a.738.738 0 0 0-.74.739v23.634c0 10.214 6.468 16.813 16.478 16.813 9.955 0 16.644-6.757 16.644-16.813V20.464a.738.738 0 0 0-.739-.739zm36.8 26.425c5.907-1.815 9.02-6.317 9.02-13.085 0-4.01-1.41-13.34-14.461-13.34h-15.177a.738.738 0 0 0-.74.739v39.484c0 .408.331.739.74.739h2.072c.408 0 .739-.33.739-.739v-12.87h10.91c1.081 0 2.172-.046 3.181-.133l9.889 13.441c.14.19.36.301.596.301h2.576a.738.738 0 0 0 .593-1.18l-9.939-13.357zm-6.953-2.455h-10.854V23.163h12.254c9.493 0 10.91 6.24 10.91 9.958 0 8.74-6.694 10.574-12.31 10.574zm42.85-5.243c-7.012-1.725-12.376-3.415-12.376-8.075 0-4.518 4.129-7.438 10.518-7.438 3.679 0 9.123.95 12.413 2.765a.738.738 0 0 0 1.01-.3l.952-1.793a.74.74 0 0 0-.301-.996c-3.334-1.805-9.253-3.114-14.074-3.114-8.448 0-14.124 4.393-14.124 10.932 0 7.21 6.85 9.461 15.123 11.47 6.536 1.62 11.536 3.235 11.536 7.964 0 4.795-4.288 7.774-11.19 7.774-5.625 0-7.982-.409-13.844-3.285a.738.738 0 0 0-.99.342l-.84 1.736a.738.738 0 0 0 .334.983c6.412 3.206 9.032 3.662 15.34 3.662C594.33 61.079 600 56.76 600 49.81c0-7.193-6.755-9.477-14.284-11.359z" fill="#00536d"/></svg>